#!OML:ASF I:\Actors\actors\Patient Classification 2\Patient 1\Session 1\actor1.ASF
:FULLY-SPECIFIED
:DEGREES
167
root -0.618238 18.329 6.10868 -3.0717 3.95194 -4.69978
lowerback 14.8086 1.78904 3.42766
upperback 7.42019 2.84428 1.83314
thorax -0.377859 1.48243 -0.43247
lowerneck -7.83808 -4.78995 -0.997135
upperneck 4.80677 -6.79554 7.19196
head 3.27576 -3.12025 2.18164
rclavicle 2.22639e-014 5.96354e-016
rhumerus 46.1681 4.6439 -63.2283
rradius 50.5602
rwrist -0.15825
rhand -18.342 -37.0237
rfingers 7.12502
rthumb 7.94028 -66.8545
lclavicle 2.22639e-014 5.96354e-016
lhumerus -38.4274 -17.0528 100.244
lradius 56.2828
lwrist 9.07695
lhand -1.25705 -13.8781
lfingers 7.12502
lthumb 24.3858 14.5902
rfemur 1.99301 -3.75059 17.8223
rtibia 23.286
rfoot -20.725 -6.16052
rtoes -17.7797
lfemur -10.8326 -1.80305 -8.97802
ltibia 38.8316
lfoot -20.3761 2.38064
ltoes -59.0203
168
root -0.6155 18.3624 6.0264 -2.69572 4.08257 -4.89423
lowerback 15.783 1.80278 3.52393
upperback 7.83834 2.91066 2.0625
thorax -0.452643 1.51601 -0.282122
lowerneck -6.77008 -4.73115 -0.833356
upperneck 5.30853 -6.7364 7.00486
head 3.22487 -3.10297 2.11247
rclavicle -6.52014e-014 -1.41137e-014
rhumerus 47.0439 4.44997 -62.4265
rradius 50.2019
rwrist -0.550036
rhand -18.7145 -37.0519
rfingers 7.12502
rthumb 7.58073 -66.896
lclavicle -6.52014e-014 -1.41137e-014
lhumerus -38.2361 -18.5692 100.627
lradius 57.5449
lwrist 9.63292
lhand -0.632206 -13.2233
lfingers 7.12502
lthumb 24.9847 15.1631
rfemur 1.08718 -3.80406 18.0359
rtibia 23.6161
rfoot -20.2334 -6.41056
rtoes -17.8812
lfemur -11.7725 -1.56382 -8.70044
ltibia 39.0585
lfoot -19.5027 2.18897
ltoes -58.9682
169
root -0.612606 18.3841 5.94296 -2.22154 4.26634 -5.08815
lowerback 16.6464 1.81579 3.56312
upperback 8.30467 2.96421 2.35004
thorax -0.419497 1.54225 -0.0309373
lowerneck -5.81225 -4.65973 -0.530012
upperneck 5.39968 -6.62629 6.58591
head 3.03471 -3.07267 1.9422
rclavicle 1.07344e-014 -2.26615e-014
rhumerus 48.3552 4.17884 -60.7584
rradius 49.9025
rwrist -1.37115
rhand -18.7349 -37.512
rfingers 7.12502
rthumb 7.56104 -67.3569
lclavicle 1.07344e-014 -2.26615e-014
lhumerus -38.0709 -20.1403 101.062
lradius 58.9235
lwrist 10.2945
lhand -0.652702 -13.134
lfingers 7.12502
lthumb 24.9651 15.2551
rfemur 0.0798891 -4.0656 18.2334
rtibia 23.9511
rfoot -19.8311 -6.51978
rtoes -18.161
lfemur -12.9114 -1.28991 -8.42778
ltibia 39.4529
lfoot -18.8955 1.93532
ltoes -58.9955
170
root -0.606372 18.3893 5.85604 -1.70342 4.53567 -5.25364
lowerback 17.3409 1.77046 3.44827
upperback 8.92829 2.9075 2.73902
thorax -0.141729 1.51069 0.443408
lowerneck -5.08982 -4.56205 -0.376983
upperneck 5.09849 -6.44893 6.18725
head 2.76379 -3.01519 1.80622
rclavicle 8.74653e-015 -3.18055e-015
rhumerus 49.8266 3.57347 -60.0506
rradius 49.7005
rwrist -1.00373
rhand -18.2577 -37.6152
rfingers 7.12502
rthumb 8.0216 -67.4429
lclavicle 8.74653e-015 -3.18055e-015
lhumerus -37.5994 -21.102 101.381
lradius 60.1812
lwrist 10.3385
lhand -0.798858 -13.3629
lfingers 7.12502
lthumb 24.825 15.0456
rfemur -0.986731 -4.51498 18.3821
rtibia 24.35
rfoot -19.6933 -6.40576
rtoes -18.109
lfemur -14.2103 -1.1223 -8.23574
ltibia 40.0222
lfoot -18.5201 1.68032
ltoes -58.9902
171
root -0.596689 18.376 5.76781 -1.19652 4.85196 -5.4485
lowerback 18.092 1.68587 3.4516
upperback 9.55798 2.81809 3.09497
thorax 0.128987 1.46501 0.824017
lowerneck -4.53195 -4.49698 -0.259534
upperneck 4.59305 -6.31611 5.94289
head 2.46972 -2.97607 1.72367
rclavicle -5.26779e-014 -3.49861e-014
rhumerus 51.3138 2.89956 -59.3677
rradius 49.9034
rwrist -0.905892
rhand -18.0375 -37.8227
rfingers 7.12502
rthumb 8.23411 -67.6422
lclavicle -5.26779e-014 -3.49861e-014
lhumerus -37.245 -21.752 101.627
lradius 61.6393
lwrist 9.95177
lhand -1.33262 -13.5686
lfingers 7.12502
lthumb 24.3134 14.9094
rfemur -2.08827 -5.03902 18.555
rtibia 24.8856
rfoot -19.9026 -6.11748
rtoes -17.8878
lfemur -15.6042 -0.980507 -8.05415
ltibia 40.7674
lfoot -18.3406 1.3951
ltoes -58.8803
172
root -0.588216 18.3458 5.67955 -0.682536 5.18208 -5.61114
lowerback 19.2962 1.55851 3.73429
upperback 9.87962 2.75164 3.2574
thorax -0.13095 1.43538 0.819824
lowerneck -4.05651 -4.48922 -0.131157
upperneck 4.22294 -6.27632 5.79815
head 2.24688 -2.97456 1.66672
rclavicle -4.96962e-014 -6.36111e-015
rhumerus 52.3665 2.26704 -58.6695
rradius 50.2648
rwrist -1.19979
rhand -18.1375 -38.0268
rfingers 7.12502
rthumb 8.1376 -67.8501
lclavicle -4.96962e-014 -6.36111e-015
lhumerus -37.5154 -22.2534 101.84
lradius 63.3304
lwrist 9.37187
lhand -2.02081 -13.6555
lfingers 7.12502
lthumb 23.6534 14.9094
rfemur -3.27496 -5.55857 18.7173
rtibia 25.6083
rfoot -20.3623 -5.76244
rtoes -17.9736
lfemur -17.0849 -0.835751 -7.91826
ltibia 41.6641
lfoot -18.4183 1.12519
ltoes -58.7474
173
root -0.582602 18.3001 5.59398 -0.0556327 5.48308 -5.65786
lowerback 20.3411 1.4465 3.96226
upperback 10.1522 2.6948 3.35929
thorax -0.355708 1.41008 0.787166
lowerneck -3.50937 -4.49423 -0.107632
upperneck 3.69275 -6.24296 5.73787
head 1.96928 -2.98036 1.65805
rclavicle 1.59028e-014 1.27222e-014
rhumerus 53.4109 1.65715 -57.7504
rradius 50.5682
rwrist -1.81221
rhand -18.6382 -37.9444
rfingers 7.12502
rthumb 7.6544 -67.7858
lclavicle 1.59028e-014 1.27222e-014
lhumerus -37.8303 -22.5003 102.075
lradius 64.9216
lwrist 8.75046
lhand -2.74633 -13.743
lfingers 7.12502
lthumb 22.9574 14.91
rfemur -4.68178 -6.02244 18.7993
rtibia 26.551
rfoot -21.0017 -5.35624
rtoes -18.51
lfemur -18.7065 -0.753532 -7.90696
ltibia 42.6563
lfoot -18.7568 0.956741
ltoes -58.7469
174
root -0.578727 18.242 5.51542 0.789686 5.73357 -5.61804
lowerback 20.9258 1.35027 3.98355
upperback 10.4517 2.59651 3.44362
thorax -0.326131 1.3613 0.876413
lowerneck -2.96766 -4.46519 -0.106959
upperneck 3.04697 -6.16307 5.78818
head 1.66287 -2.96329 1.69146
rclavicle -3.57812e-015 -1.59028e-015
rhumerus 54.5358 1.13141 -56.6978
rradius 50.987
rwrist -2.70811
rhand -19.2318 -37.8053
rfingers 7.12502
rthumb 7.08143 -67.6668
lclavicle -3.57812e-015 -1.59028e-015
lhumerus -37.9015 -22.3639 102.204
lradius 66.224
lwrist 7.60099
lhand -3.4792 -14.2116
lfingers 7.12502
lthumb 22.254 14.5271
rfemur -6.42786 -6.37917 18.845
rtibia 27.7577
rfoot -21.8862 -4.88801
rtoes -19.2943
lfemur -20.5259 -0.732087 -7.97871
ltibia 43.6677
lfoot -19.3365 0.877904
ltoes -58.9492
175
root -0.580416 18.1748 5.44008 1.8819 5.97278 -5.45965
lowerback 21.0304 1.28374 3.88917
upperback 10.7527 2.48458 3.41915
thorax -0.054402 1.30822 0.931649
lowerneck -2.52504 -4.43969 0.0280702
upperneck 2.45417 -6.09865 5.88254
head 1.39186 -2.9492 1.71332
rclavicle 2.50469e-014 1.07344e-014
rhumerus 55.6298 0.494279 -56.1317
rradius 51.3137
rwrist -3.03767
rhand -19.4064 -37.7157
rfingers 7.12502
rthumb 6.9129 -67.5828
lclavicle 2.50469e-014 1.07344e-014
lhumerus -37.8102 -22.1689 102.14
lradius 67.2899
lwrist 5.83977
lhand -4.56438 -14.9995
lfingers 7.12502
lthumb 21.2119 13.8599
rfemur -8.57308 -6.67488 18.8457
rtibia 29.2796
rfoot -23.0633 -4.36028
rtoes -19.5416
lfemur -22.5592 -0.673167 -8.13198
ltibia 44.6381
lfoot -19.9752 0.758518
ltoes -59.1279
176
root -0.585839 18.102 5.36303 3.11643 6.15625 -5.12748
lowerback 21.3973 1.30108 3.66261
upperback 10.6709 2.48673 3.30988
thorax -0.333068 1.29855 0.930344
lowerneck -2.02582 -4.46996 0.250791
upperneck 2.17781 -6.11822 5.80964
head 1.207 -2.97243 1.6641
rclavicle -1.70955e-014 -2.74323e-014
rhumerus 56.2418 -0.0515865 -55.7967
rradius 51.3624
rwrist -2.89705
rhand -19.4577 -37.5935
rfingers 7.12502
rthumb 6.86336 -67.4623
lclavicle -1.70955e-014 -2.74323e-014
lhumerus -38.2799 -21.9859 102.274
lradius 68.2722
lwrist 4.005
lhand -6.01698 -15.824
lfingers 7.12502
lthumb 19.816 13.1859
rfemur -11.0311 -6.89634 18.7017
rtibia 31.1062
rfoot -24.2644 -3.82671
rtoes -19.3239
lfemur -24.6669 -0.558807 -8.44759
ltibia 45.5437
lfoot -20.633 0.559601
ltoes -58.9425
177
root -0.588079 18.0347 5.28803 4.36869 6.17064 -4.67481
lowerback 21.4214 1.33791 3.48887
upperback 10.735 2.49018 3.01336
thorax -0.270688 1.3027 0.712587
lowerneck -1.55349 -4.49127 0.607577
upperneck 1.666 -6.11645 5.76424
head 0.950111 -2.98951 1.60375
rclavicle 2.14687e-014 -1.47101e-014
rhumerus 56.8721 -0.685129 -55.1568
rradius 51.3925
rwrist -3.32848
rhand -19.6739 -37.7205
rfingers 7.12502
rthumb 6.65464 -67.5959
lclavicle 2.14687e-014 -1.47101e-014
lhumerus -38.43 -21.9101 102.131
lradius 69.0934
lwrist 2.71556
lhand -7.35845 -16.6731
lfingers 7.12502
lthumb 18.526 12.4647
rfemur -13.6364 -6.91887 18.3897
rtibia 33.1193
rfoot -25.1213 -3.45252
rtoes -19.3018
lfemur -26.6845 -0.382005 -8.9327
ltibia 46.3739
lfoot -21.3135 0.339074
ltoes -58.5902
